<svg width="19" height="18" viewBox="0 0 19 18" fill="none" xmlns="http://www.w3.org/2000/svg">
<path fill-rule="evenodd" clip-rule="evenodd" d="M10.5899 6.31806C9.19919 7.70875 9.19919 9.97633 10.5899 11.367L12.4053 13.1825L14.0563 11.5314L12.5423 10.0243C11.8915 9.37347 11.8915 8.31846 12.5423 7.66765L14.0563 6.16049L12.4053 4.50948L10.5899 6.31806Z" fill="#4E4FEB"/>
<path d="M8.67854 2.86531C9.32936 2.3515 10.2885 2.39261 10.8913 2.99547L12.3985 4.50262L14.0495 2.8516L12.2409 1.04302C10.8502 -0.347673 8.58263 -0.347673 7.19194 1.04302L7.02068 1.20744L6.47947 1.74864L5.37651 2.85845L4.82845 3.40651L3.72549 4.50947L1.91005 6.31806C0.519362 7.70875 0.519362 9.97633 1.91005 11.367L7.18509 16.6421C8.57578 18.0328 10.8434 18.0328 12.2341 16.6421L14.0495 14.8266L12.3985 13.1756L10.8845 14.6828C10.2337 15.3336 9.17865 15.3336 8.52783 14.6828L3.85565 10.0106C3.20484 9.35977 3.20484 8.30476 3.85565 7.65394L4.85585 6.65374L5.36966 6.13994L6.47262 5.03698L7.02068 4.48892L8.13049 3.37911L8.67854 2.86531Z" fill="#068FFF"/>
<path fill-rule="evenodd" clip-rule="evenodd" d="M14.0495 6.15364L15.7279 7.83207C16.2828 8.38697 16.2828 9.29811 15.7279 9.85302L14.0495 11.5314L15.7005 13.1825L17.5159 11.367C18.9066 9.97633 18.9066 7.70875 17.5159 6.31806L15.7005 4.50262L14.0495 6.15364Z" fill="white"/>
</svg>
