<?xml version="1.0" standalone="no"?>
<!DOCTYPE svg PUBLIC "-//W3C//DTD SVG 20010904//EN"
 "http://www.w3.org/TR/2001/REC-SVG-20010904/DTD/svg10.dtd">
<svg version="1.0" xmlns="http://www.w3.org/2000/svg"
 width="608.000000pt" height="608.000000pt" viewBox="0 0 608.000000 608.000000"
 preserveAspectRatio="xMidYMid meet">
<metadata>
Created by potrace 1.14, written by Peter Selinger 2001-2017
</metadata>
<g transform="translate(0.000000,608.000000) scale(0.100000,-0.100000)"
fill="#000000" stroke="none">
<path d="M2960 5910 c-25 -4 -61 -10 -80 -14 -84 -13 -151 -37 -270 -93 -110
-52 -205 -119 -300 -210 -75 -71 -1756 -1754 -1775 -1776 -34 -41 -90 -128
-137 -217 -31 -57 -102 -260 -94 -268 3 -2 1 -14 -4 -27 -25 -67 -28 -326 -3
-428 2 -12 8 -38 12 -57 20 -89 74 -222 131 -320 55 -94 236 -283 1027 -1072
488 -488 906 -901 928 -919 127 -99 277 -172 442 -215 81 -21 125 -26 253 -28
85 -2 169 1 185 6 17 4 46 11 66 13 126 17 353 123 481 226 40 32 628 616 657
652 12 15 -13 43 -248 278 l-262 261 264 263 264 264 263 -264 264 -264 308
307 c169 169 324 329 345 356 21 27 42 54 48 60 6 6 24 34 40 61 16 28 34 57
41 65 7 8 13 18 14 22 0 4 10 29 21 55 34 79 74 214 86 288 1 11 5 74 7 140 3
110 0 156 -19 269 -7 38 -37 143 -54 181 -89 213 -131 266 -505 643 l-331 332
-265 -265 -265 -265 -260 260 c-143 143 -262 260 -266 260 -11 0 -614 -605
-664 -666 -76 -93 -175 -275 -190 -350 -3 -12 -11 -40 -20 -63 -8 -23 -14 -43
-15 -46 0 -3 0 -6 -1 -7 -8 -25 -22 -176 -22 -243 -1 -90 11 -209 24 -243 6
-15 9 -27 8 -27 -4 0 21 -95 31 -120 39 -97 109 -225 158 -291 32 -43 199
-219 370 -391 172 -172 312 -316 312 -320 0 -5 -121 -128 -269 -274 -230 -228
-278 -271 -337 -301 -87 -44 -157 -61 -248 -61 -127 1 -233 37 -324 110 -73
59 -1580 1571 -1610 1616 -57 83 -101 221 -90 282 3 14 1 25 -4 25 -5 0 -7 3
-5 8 3 4 8 31 11 59 7 67 49 175 92 233 28 39 1353 1370 1539 1545 127 121
233 167 385 168 110 1 200 -22 290 -75 19 -12 157 -142 306 -290 l271 -269
261 261 c144 144 262 265 262 269 0 10 -641 644 -685 676 -149 112 -325 188
-502 218 -89 15 -271 19 -343 7z m2153 -2606 c69 -137 67 -295 -3 -435 -23
-45 -594 -629 -615 -629 -5 0 -130 121 -276 268 -243 244 -269 274 -303 342
-20 41 -38 86 -40 100 -3 14 -5 25 -6 25 -9 0 -14 172 -6 210 2 11 9 32 15 48
6 15 7 27 4 27 -4 0 -2 5 5 12 7 7 12 20 12 29 0 10 3 19 8 21 4 2 16 21 27
43 12 24 132 152 291 312 l271 272 295 -297 c219 -220 302 -310 321 -348z"/>
</g>
</svg>
