<?xml version="1.0" standalone="no"?>
<!DOCTYPE svg PUBLIC "-//W3C//DTD SVG 20010904//EN"
 "http://www.w3.org/TR/2001/REC-SVG-20010904/DTD/svg10.dtd">
<svg version="1.0" xmlns="http://www.w3.org/2000/svg"
 width="512.000000pt" height="512.000000pt" viewBox="0 0 512.000000 512.000000"
 preserveAspectRatio="xMidYMid meet">
<metadata>
Created by potrace 1.14, written by Peter Selinger 2001-2017
</metadata>
<g transform="translate(0.000000,512.000000) scale(0.100000,-0.100000)"
fill="#000000" stroke="none">
<path d="M2315 5109 c-798 -82 -1502 -519 -1927 -1196 -469 -746 -515 -1701
-120 -2491 452 -902 1382 -1456 2382 -1419 784 30 1492 401 1964 1031 256 342
423 757 488 1211 17 118 17 512 0 630 -58 404 -200 787 -410 1100 -411 613
-1033 1006 -1772 1120 -126 19 -477 28 -605 14z m1076 -1419 c46 -13 613 -540
647 -602 27 -50 28 -99 3 -153 -12 -26 -254 -287 -696 -750 -374 -390 -688
-717 -699 -726 -53 -41 -133 -47 -197 -14 -36 19 -1338 1427 -1366 1477 -43
78 -27 149 53 235 118 125 532 517 559 529 24 11 196 13 845 14 507 0 828 -4
851 -10z"/>
<path d="M1539 3283 c-129 -126 -244 -240 -257 -256 l-24 -27 174 -188 c96
-103 373 -403 617 -667 244 -264 454 -491 466 -503 l22 -24 662 692 c363 380
661 695 660 698 0 4 -120 118 -266 255 l-266 247 -777 0 -777 0 -234 -227z"/>
</g>
</svg>
